<svg width="738" height="750" viewBox="0 0 738 750" fill="none" xmlns="http://www.w3.org/2000/svg">
<g clip-path="url(#clip0_184_2)">
<path d="M529 374.633C529 461.885 457.598 532.633 369.5 532.633C281.402 532.633 210 461.885 210 374.633C210 287.381 281.402 216.633 369.5 216.633C457.598 216.633 529 287.381 529 374.633Z" stroke="#534541" stroke-width="2"/>
<path d="M529 374.633C529 461.885 457.598 532.633 369.5 532.633C281.402 532.633 210 461.885 210 374.633C210 287.381 281.402 216.633 369.5 216.633C457.598 216.633 529 287.381 529 374.633Z" stroke="#534541" stroke-width="2"/>
<path d="M581 374.633C581 491.72 486.306 586.633 369.5 586.633C252.694 586.633 158 491.72 158 374.633C158 257.546 252.694 162.633 369.5 162.633C486.306 162.633 581 257.546 581 374.633Z" stroke="#534541" stroke-width="2"/>
<path d="M633 374.755C633 520.628 515.025 638.878 369.5 638.878C223.975 638.878 106 520.628 106 374.755C106 228.882 223.975 110.633 369.5 110.633C515.025 110.633 633 228.882 633 374.755Z" stroke="#534541" stroke-width="2"/>
<path d="M685 374.878C685 549.537 543.744 691.122 369.5 691.122C195.256 691.122 54 549.537 54 374.878C54 200.218 195.256 58.6331 369.5 58.6331C543.744 58.6331 685 200.218 685 374.878Z" stroke="#534541" stroke-width="2"/>
<path d="M737 375C737 578.446 572.462 743.367 369.5 743.367C166.538 743.367 2 578.446 2 375C2 171.554 166.538 6.63306 369.5 6.63306C572.462 6.63306 737 171.554 737 375Z" stroke="#534541" stroke-width="2"/>
<path d="M426.186 344.54C423.572 336.902 416.921 326.897 400.057 322.613C386.142 319.078 374.277 326.021 369.996 329.017C365.719 326.018 353.858 319.078 339.94 322.613C323.076 326.897 316.421 336.902 313.81 344.54C309.778 356.336 312.611 370.831 321.03 381.476C344.29 410.867 367.692 427.808 367.936 427.982C368.071 428.076 368.199 428.148 368.334 428.202C368.479 428.286 368.629 428.354 368.768 428.405C369.118 428.532 369.475 428.608 369.763 428.619L370 428.633C370.751 428.633 371.469 428.401 372.082 427.967C372.315 427.801 395.685 410.896 418.97 381.476C427.389 370.831 430.222 356.332 426.19 344.54H426.186ZM356.899 409.586C348.964 402.353 337.832 391.285 326.62 377.119C319.75 368.435 317.307 356.256 320.541 346.809C323.477 338.222 330.795 332.216 341.701 329.444C343.696 328.938 345.752 328.685 347.812 328.685C355.207 328.685 361.544 331.995 364.746 334.036C359.663 340.368 356.881 348.252 356.881 356.39C356.881 364.528 359.827 372.871 365.201 379.297C359.83 385.727 356.881 393.818 356.881 402.205L356.899 409.59V409.586ZM376.005 356.386C376.005 362.783 373.861 368.996 370 373.968C366.113 368.949 363.987 362.762 363.987 356.386C363.987 350.011 366.131 343.777 369.996 338.809C373.883 343.827 376.005 350.011 376.005 356.379V356.386ZM400.418 392.305C386.923 407.006 375.017 416.761 370.441 420.333C366.27 415.206 363.987 408.812 363.987 402.201C363.987 395.591 366.211 389.367 370.273 384.287C376.702 389.476 384.753 392.32 393.081 392.32L400.421 392.309L400.418 392.305ZM383.108 356.379C383.108 348.245 380.326 340.364 375.247 334.032C379.495 331.319 388.359 326.93 398.292 329.444C409.198 332.216 416.516 338.219 419.455 346.805C422.295 355.109 420.742 365.649 415.528 374.029C409.158 369.029 401.238 366.286 393.067 366.286C389.005 366.286 384.906 366.981 381.063 368.312C382.405 364.499 383.108 360.424 383.108 356.379ZM410.788 379.301C405.73 383.155 399.495 385.264 393.074 385.264C386.653 385.264 380.37 383.136 375.36 379.301C380.418 375.444 386.653 373.338 393.074 373.338C399.495 373.338 405.73 375.448 410.788 379.301Z" fill="#534541"/>
</g>
<defs>
<clipPath id="clip0_184_2">
<rect width="738" height="750" fill="white"/>
</clipPath>
</defs>
</svg>
