<svg width="23" height="23" viewBox="0 0 23 23" fill="none" xmlns="http://www.w3.org/2000/svg">
<path fill-rule="evenodd" clip-rule="evenodd" d="M11.959 2.8572C14.896 2.8572 15.2436 2.8682 16.4041 2.9221C17.4766 2.9705 18.0585 3.1498 18.4457 3.3005C18.9594 3.4996 19.3257 3.7383 19.7107 4.1233C20.0957 4.5072 20.3344 4.8746 20.5335 5.38832C20.6853 5.77552 20.8635 6.35853 20.913 7.42992C20.9658 8.59045 20.9768 8.93805 20.9768 11.8751C20.9768 14.812 20.9658 15.1608 20.913 16.3202C20.8635 17.3927 20.6853 17.9757 20.5335 18.3629C20.3344 18.8766 20.0957 19.2429 19.7107 19.6279C19.3257 20.0128 18.9594 20.2515 18.4457 20.4506C18.0585 20.6014 17.4766 20.7795 16.4041 20.829C15.2436 20.8818 14.896 20.8928 11.959 20.8928C9.02196 20.8928 8.67326 20.8818 7.51389 20.829C6.44139 20.7795 5.85949 20.6014 5.47119 20.4506C4.95748 20.2515 4.59118 20.0128 4.20728 19.6279C3.82228 19.2429 3.58358 18.8766 3.38448 18.3629C3.23268 17.9757 3.05448 17.3927 3.00498 16.3202C2.95218 15.1608 2.94118 14.812 2.94118 11.8751C2.94118 8.93805 2.95218 8.59045 3.00498 7.42992C3.05448 6.35853 3.23268 5.77552 3.38448 5.38832C3.58358 4.8746 3.82228 4.5072 4.20728 4.1233C4.59118 3.7383 4.95748 3.4996 5.47119 3.3005C5.85949 3.1498 6.44139 2.9705 7.51389 2.9221C8.67436 2.8682 9.02196 2.8572 11.959 2.8572ZM11.959 6.22652C15.0786 6.22652 17.6075 8.75545 17.6075 11.8751C17.6075 14.9947 15.0786 17.5236 11.959 17.5236C8.83936 17.5236 6.31049 14.9947 6.31049 11.8751C6.31049 8.75545 8.83936 6.22652 11.959 6.22652ZM11.959 15.5425C9.93386 15.5425 8.29266 13.9001 8.29266 11.8751C8.29266 9.84995 9.93386 8.20875 11.959 8.20875C13.9841 8.20875 15.6253 9.84995 15.6253 11.8751C15.6253 13.9001 13.9841 15.5425 11.959 15.5425ZM19.1508 6.00318C19.1508 6.73248 18.559 7.32322 17.8308 7.32322C17.1015 7.32322 16.5108 6.73248 16.5108 6.00318C16.5108 5.275 17.1015 4.6832 17.8308 4.6832C18.559 4.6832 19.1508 5.275 19.1508 6.00318ZM11.6862 0.875C8.94716 0.8761 8.55996 0.8893 7.42369 0.941C6.25329 0.9949 5.45359 1.1808 4.75398 1.4525C4.03018 1.7341 3.41638 2.1103 2.80478 2.7208C2.19428 3.3335 1.81808 3.9462 1.53648 4.67C1.26478 5.36962 1.07888 6.16928 1.02498 7.33968C0.972184 8.51345 0.958984 8.88738 0.958984 11.8751C0.958984 14.8627 0.972184 15.2367 1.02498 16.4103C1.07888 17.5807 1.26478 18.3804 1.53648 19.0811C1.81808 19.8038 2.19428 20.4176 2.80478 21.0292C3.41638 21.6408 4.03018 22.016 4.75398 22.2976C5.45359 22.5693 6.25329 22.7551 7.42369 22.809C8.59626 22.8629 8.97136 22.8751 11.959 22.8751C14.9466 22.8751 15.3206 22.8629 16.4943 22.809C17.6647 22.7551 18.4644 22.5693 19.164 22.2976C19.8878 22.016 20.5016 21.6408 21.1121 21.0292C21.7237 20.4176 22.0999 19.8038 22.3815 19.0811C22.6532 18.3804 22.8391 17.5807 22.893 16.4103C22.9447 15.274 22.9579 14.8869 22.959 12.1479V11.6034C22.9579 8.86325 22.9447 8.47605 22.893 7.33968C22.8391 6.16928 22.6532 5.36962 22.3815 4.67C22.0999 3.9462 21.7237 3.3335 21.1121 2.7208C20.5016 2.1103 19.8878 1.7341 19.164 1.4525C18.4644 1.1808 17.6647 0.9949 16.4943 0.941C15.3569 0.8893 14.9708 0.8761 12.2318 0.875H11.6862Z" fill="#534541"/>
</svg>
