<svg width="23" height="23" viewBox="0 0 23 23" fill="none" xmlns="http://www.w3.org/2000/svg">
<path d="M21.0682 22.875H2.84973C2.82519 22.8625 2.80194 22.844 2.77611 22.8384C1.67271 22.6043 0.96021 21.734 0.959779 20.6058C0.958488 14.7849 0.958488 8.96348 0.961932 3.14252C0.961932 2.9441 0.982166 2.74008 1.02995 2.54854C1.28439 1.5362 2.16392 0.875942 3.24795 0.875512C9.05471 0.875081 14.8615 0.875081 20.6682 0.875081C20.7328 0.875081 20.7974 0.874221 20.8615 0.878094C21.4776 0.915541 21.986 1.17336 22.4015 1.62659C22.6998 1.95242 22.8462 2.34969 22.959 2.76547V20.9842C22.9456 21.0156 22.9263 21.0462 22.9198 21.0789C22.813 21.6031 22.5487 22.0292 22.1406 22.374C21.8267 22.6387 21.4535 22.767 21.0686 22.875H21.0682ZM19.6466 19.5634C19.6501 19.4997 19.6544 19.4575 19.6544 19.4153C19.6544 17.3816 19.6638 15.3483 19.6514 13.3146C19.6432 11.973 19.0581 10.9094 17.9681 10.1476C16.7915 9.32546 15.3325 9.15975 14.0319 10.0524C13.6849 10.2905 13.3878 10.6021 13.0649 10.8831V9.69089H9.78099V19.5595H13.0615V19.2961C13.0615 17.5202 13.0615 15.7447 13.0624 13.9688C13.0624 13.8259 13.0667 13.6821 13.0804 13.5401C13.1726 12.5859 14.2334 11.8826 15.146 12.1684C15.9098 12.4077 16.3549 13.0288 16.3562 13.8711C16.3588 15.6827 16.3571 17.4944 16.3571 19.3055V19.5629H19.6475L19.6466 19.5634ZM7.54533 19.5634V9.69433H4.27688V19.5634H7.54533ZM7.88243 5.83005C7.88587 4.73851 6.99686 3.84496 5.90809 3.84539C4.82234 3.84539 3.92128 4.74927 3.92817 5.83048C3.93548 6.91642 4.80942 7.79017 5.8969 7.79877C6.99083 7.80738 7.87855 6.92718 7.88199 5.83005H7.88243Z" fill="#534541"/>
</svg>
