<svg width="178" height="38" viewBox="0 0 178 38" fill="none" xmlns="http://www.w3.org/2000/svg">
<g clip-path="url(#clip0_938_27847)">
<path d="M0.470816 1.84979H6.56518C6.82961 1.84979 7.04576 2.06782 7.04576 2.33928V29.9087C7.04576 30.178 7.25982 30.3981 7.52635 30.3981H19.8599C20.1243 30.3981 20.3405 30.6162 20.3405 30.8876V36.4601C20.3405 36.7294 20.1264 36.9496 19.8599 36.9496H0.470816C0.206391 36.9496 -0.00976562 36.7315 -0.00976562 36.4601V2.33714C-0.00976562 2.06782 0.204293 1.84766 0.470816 1.84766V1.84979Z" fill="#534741"/>
<path d="M19.8096 23.9918C19.8096 16.3674 25.3289 10.6475 32.7181 10.6475C40.1073 10.6475 45.675 16.3674 45.675 23.9918C45.675 31.6163 40.1073 37.4345 32.7181 37.4345C25.3289 37.4345 19.8096 31.6676 19.8096 23.9918ZM38.3823 26.2405V21.8415C38.3823 18.1265 36.6069 16.4657 32.7202 16.4657C28.8336 16.4657 27.1043 18.1757 27.1043 21.8415V26.2405C27.1043 29.9554 28.928 31.6654 32.7202 31.6654C36.5124 31.6654 38.3823 29.9554 38.3823 26.2405Z" fill="#534741"/>
<path d="M45.1064 11.1367H51.2553C51.484 11.1367 51.6813 11.3013 51.7254 11.53L55.5071 30.7375C55.5512 30.9662 55.7484 31.1308 55.9772 31.1308H57.1146C57.3413 31.1308 57.5364 30.9684 57.5847 30.7418L61.5511 11.5257C61.5973 11.2992 61.7945 11.1367 62.0212 11.1367H68.1239C68.4345 11.1367 68.6633 11.4338 68.5898 11.7416L62.634 36.5729C62.5815 36.7909 62.3884 36.9448 62.1681 36.9448H50.9741C50.7516 36.9448 50.5586 36.7909 50.5082 36.5707L44.6447 11.7395C44.5712 11.4317 44.8 11.1367 45.1106 11.1367H45.1064Z" fill="#534741"/>
<path d="M75.2316 25.8489C74.9671 25.8489 74.751 26.067 74.751 26.3384V27.2191C74.751 30.6412 76.3354 32.0092 80.0772 32.0092C83.5232 32.0092 84.9544 31.2247 85.3049 28.9953C85.3427 28.7602 85.542 28.5892 85.7771 28.5892H91.5587C91.8903 28.5892 92.1233 28.9248 92.012 29.2433C90.3898 33.8667 85.6763 37.4363 80.1738 37.4363C73.1182 37.4363 67.5527 32.1075 67.5527 24.2886C67.5527 17.0061 72.8307 10.6514 80.2703 10.6514C86.9901 10.6514 92.3163 16.5166 92.3163 23.5554V25.3637C92.3163 25.6331 92.1023 25.8532 91.8358 25.8532H75.2316V25.8489ZM74.751 20.5693V20.7168C74.751 20.9861 74.965 21.2063 75.2316 21.2063H84.6375C84.902 21.2063 85.1181 20.9883 85.1181 20.7168C85.1181 17.1964 83.775 15.8284 80.1759 15.8284C76.3837 15.8284 74.7531 17.2455 74.7531 20.5693H74.751Z" fill="#534741"/>
<path d="M107.349 1.84979H113.443C113.708 1.84979 113.924 2.06782 113.924 2.33928V29.9087C113.924 30.178 114.138 30.3981 114.404 30.3981H126.738C127.002 30.3981 127.218 30.6162 127.218 30.8876V36.4601C127.218 36.7294 127.004 36.9496 126.738 36.9496H107.349C107.084 36.9496 106.868 36.7315 106.868 36.4601V2.33714C106.868 2.06782 107.082 1.84766 107.349 1.84766V1.84979Z" fill="#534741"/>
<path d="M129.231 11.137H135.086C135.35 11.137 135.567 11.355 135.567 11.6265V36.4577C135.567 36.7271 135.352 36.9472 135.086 36.9472H129.231C128.966 36.9472 128.75 36.7292 128.75 36.4577V11.6243C128.75 11.355 128.964 11.1349 129.231 11.1349V11.137ZM136.238 4.61551C136.238 6.924 134.4 8.79644 132.133 8.79644C129.867 8.79644 128.028 6.924 128.028 4.61551C128.028 2.30701 129.867 0.43457 132.133 0.43457C134.4 0.43457 136.238 2.30701 136.238 4.61551Z" fill="#534741"/>
<path d="M140.99 16.953H137.055C136.79 16.953 136.574 16.735 136.574 16.4635V11.6243C136.574 11.3549 136.788 11.1348 137.055 11.1348H140.99C141.254 11.1348 141.47 10.9168 141.47 10.6453V9.47181C141.47 4.63253 144.973 1.60156 150.637 1.60156H153.613C153.877 1.60156 154.093 1.81959 154.093 2.09105V6.6375C154.093 6.90682 153.879 7.12698 153.613 7.12698H150.301C148.91 7.12698 148.238 7.86014 148.238 9.13195V10.6474C148.238 10.9168 148.452 11.1369 148.719 11.1369H154.093C154.358 11.1369 154.574 11.3549 154.574 11.6264V16.4657C154.574 16.735 154.36 16.9552 154.093 16.9552H148.719C148.454 16.9552 148.238 17.1732 148.238 17.4447V36.4598C148.238 36.7291 148.024 36.9493 147.758 36.9493H141.951C141.686 36.9493 141.47 36.7313 141.47 36.4598V17.4447C141.47 17.1753 141.256 16.9552 140.99 16.9552V16.953Z" fill="#534741"/>
<path d="M160.905 25.8489C160.641 25.8489 160.425 26.067 160.425 26.3384V27.2191C160.425 30.6412 162.009 32.0092 165.751 32.0092C169.197 32.0092 170.628 31.2247 170.979 28.9953C171.016 28.7602 171.216 28.5892 171.451 28.5892H177.233C177.564 28.5892 177.797 28.9248 177.686 29.2433C176.064 33.8667 171.35 37.4363 165.848 37.4363C158.792 37.4363 153.227 32.1075 153.227 24.2886C153.227 17.0061 158.505 10.6514 165.944 10.6514C172.664 10.6514 177.99 16.5166 177.99 23.5554V25.3637C177.99 25.6331 177.776 25.8532 177.51 25.8532H160.905V25.8489ZM160.425 20.5693V20.7168C160.425 20.9861 160.639 21.2063 160.905 21.2063H170.311C170.576 21.2063 170.792 20.9883 170.792 20.7168C170.792 17.1964 169.449 15.8284 165.85 15.8284C162.058 15.8284 160.427 17.2455 160.427 20.5693H160.425Z" fill="#534741"/>
<path d="M99.5463 37.4341C101.813 37.4341 103.651 35.5623 103.651 33.2532C103.651 30.9441 101.813 29.0723 99.5463 29.0723C97.2792 29.0723 95.4414 30.9441 95.4414 33.2532C95.4414 35.5623 97.2792 37.4341 99.5463 37.4341Z" fill="#534741"/>
</g>
<defs>
<clipPath id="clip0_938_27847">
<rect width="178" height="37" fill="white" transform="translate(-0.00976562 0.43457)"/>
</clipPath>
</defs>
</svg>
