<svg width="121" height="26" viewBox="0 0 121 26" fill="none" xmlns="http://www.w3.org/2000/svg">
<g clip-path="url(#clip0_938_24267)">
<path d="M0.336003 1.44383H4.4731C4.6526 1.44383 4.79934 1.59114 4.79934 1.77456V20.4025C4.79934 20.5845 4.94465 20.7333 5.12557 20.7333H13.4981C13.6776 20.7333 13.8243 20.8806 13.8243 21.064V24.8292C13.8243 25.0111 13.679 25.1599 13.4981 25.1599H0.336003C0.156501 25.1599 0.00976562 25.0126 0.00976562 24.8292V1.77312C0.00976562 1.59114 0.155077 1.44238 0.336003 1.44238V1.44383Z" fill="white"/>
<path d="M13.4639 16.4049C13.4639 11.2532 17.2106 7.38843 22.2267 7.38843C27.2428 7.38843 31.0223 11.2532 31.0223 16.4049C31.0223 21.5565 27.2428 25.4878 22.2267 25.4878C17.2106 25.4878 13.4639 21.5912 13.4639 16.4049ZM26.0717 17.9242V14.952C26.0717 12.4419 24.8665 11.3197 22.2281 11.3197C19.5897 11.3197 18.4158 12.4751 18.4158 14.952V17.9242C18.4158 20.4344 19.6538 21.5898 22.2281 21.5898C24.8024 21.5898 26.0717 20.4344 26.0717 17.9242Z" fill="white"/>
<path d="M30.6362 7.71912H34.8103C34.9656 7.71912 35.0995 7.83032 35.1295 7.98486L37.6966 20.9629C37.7265 21.1174 37.8605 21.2286 38.0157 21.2286H38.7879C38.9417 21.2286 39.0742 21.1189 39.107 20.9658L41.7995 7.98197C41.8309 7.82888 41.9648 7.71912 42.1186 7.71912H46.2614C46.4723 7.71912 46.6276 7.91987 46.5777 8.12784L42.5346 24.9057C42.499 25.053 42.3679 25.157 42.2184 25.157H34.6194C34.4684 25.157 34.3374 25.053 34.3032 24.9043L30.3228 8.1264C30.2729 7.91842 30.4282 7.71912 30.6391 7.71912H30.6362Z" fill="white"/>
<path d="M51.0866 17.66C50.9071 17.66 50.7604 17.8073 50.7604 17.9907V18.5858C50.7604 20.898 51.836 21.8223 54.3761 21.8223C56.7153 21.8223 57.6869 21.2923 57.9248 19.7859C57.9505 19.6271 58.0858 19.5115 58.2454 19.5115H62.1702C62.3953 19.5115 62.5534 19.7383 62.4779 19.9535C61.3767 23.0774 58.177 25.4893 54.4416 25.4893C49.6521 25.4893 45.874 21.8888 45.874 16.6057C45.874 11.6851 49.4569 7.39136 54.5072 7.39136C59.0688 7.39136 62.6845 11.3544 62.6845 16.1103V17.3321C62.6845 17.5141 62.5392 17.6629 62.3582 17.6629H51.0866V17.66ZM50.7604 14.0927V14.1923C50.7604 14.3743 50.9057 14.5231 51.0866 14.5231H57.4718C57.6513 14.5231 57.798 14.3758 57.798 14.1923C57.798 11.8137 56.8863 10.8893 54.443 10.8893C51.8688 10.8893 50.7618 11.8469 50.7618 14.0927H50.7604Z" fill="white"/>
<path d="M72.889 1.44383H77.0261C77.2056 1.44383 77.3523 1.59114 77.3523 1.77456V20.4025C77.3523 20.5845 77.4976 20.7333 77.6786 20.7333H86.051C86.2305 20.7333 86.3773 20.8806 86.3773 21.064V24.8292C86.3773 25.0111 86.232 25.1599 86.051 25.1599H72.889C72.7095 25.1599 72.5627 25.0126 72.5627 24.8292V1.77312C72.5627 1.59114 72.7081 1.44238 72.889 1.44238V1.44383Z" fill="white"/>
<path d="M87.7435 7.71916H91.7182C91.8977 7.71916 92.0444 7.86648 92.0444 8.04989V24.8278C92.0444 25.0097 91.8991 25.1585 91.7182 25.1585H87.7435C87.564 25.1585 87.4173 25.0112 87.4173 24.8278V8.04845C87.4173 7.86647 87.5626 7.71772 87.7435 7.71772V7.71916ZM92.5003 3.31275C92.5003 4.87254 91.2523 6.13771 89.7137 6.13771C88.1752 6.13771 86.9272 4.87254 86.9272 3.31275C86.9272 1.75296 88.1752 0.487793 89.7137 0.487793C91.2523 0.487793 92.5003 1.75296 92.5003 3.31275Z" fill="white"/>
<path d="M95.7257 11.649H93.0545C92.875 11.649 92.7283 11.5017 92.7283 11.3182V8.04846C92.7283 7.86649 92.8736 7.71773 93.0545 7.71773H95.7257C95.9052 7.71773 96.0519 7.57042 96.0519 7.387V6.5941C96.0519 3.32432 98.4296 1.27637 102.275 1.27637H104.295C104.474 1.27637 104.621 1.42368 104.621 1.6071V4.67902C104.621 4.861 104.476 5.00976 104.295 5.00976H102.047C101.102 5.00976 100.646 5.50514 100.646 6.36447V7.38844C100.646 7.57042 100.792 7.71917 100.973 7.71917H104.621C104.8 7.71917 104.947 7.86649 104.947 8.04991V11.3197C104.947 11.5017 104.802 11.6504 104.621 11.6504H100.973C100.793 11.6504 100.646 11.7977 100.646 11.9812V24.8292C100.646 25.0112 100.501 25.16 100.32 25.16H96.3781C96.1986 25.16 96.0519 25.0126 96.0519 24.8292V11.9812C96.0519 11.7992 95.9066 11.6504 95.7257 11.6504V11.649Z" fill="white"/>
<path d="M109.245 17.66C109.066 17.66 108.919 17.8073 108.919 17.9907V18.5858C108.919 20.898 109.995 21.8223 112.535 21.8223C114.874 21.8223 115.846 21.2923 116.083 19.7859C116.109 19.6271 116.244 19.5115 116.404 19.5115H120.329C120.554 19.5115 120.712 19.7383 120.637 19.9535C119.535 23.0774 116.336 25.4893 112.6 25.4893C107.811 25.4893 104.033 21.8888 104.033 16.6057C104.033 11.6851 107.616 7.39136 112.666 7.39136C117.227 7.39136 120.843 11.3544 120.843 16.1103V17.3321C120.843 17.5141 120.698 17.6629 120.517 17.6629H109.245V17.66ZM108.919 14.0927V14.1923C108.919 14.3743 109.064 14.5231 109.245 14.5231H115.63C115.81 14.5231 115.957 14.3758 115.957 14.1923C115.957 11.8137 115.045 10.8893 112.602 10.8893C110.027 10.8893 108.92 11.8469 108.92 14.0927H108.919Z" fill="white"/>
<path d="M67.5923 25.4878C69.1313 25.4878 70.3788 24.223 70.3788 22.6628C70.3788 21.1027 69.1313 19.8379 67.5923 19.8379C66.0533 19.8379 64.8057 21.1027 64.8057 22.6628C64.8057 24.223 66.0533 25.4878 67.5923 25.4878Z" fill="white"/>
</g>
<defs>
<clipPath id="clip0_938_24267">
<rect width="120.833" height="25" fill="white" transform="translate(0.00976562 0.487793)"/>
</clipPath>
</defs>
</svg>