<svg width="204" height="82" viewBox="0 0 204 82" fill="none" xmlns="http://www.w3.org/2000/svg">
<path d="M140.321 54.5073H148.771V56.5635H142.623V60.36H148.176V62.3969H142.623V66.6466H148.892V68.7028H140.324V54.5073H140.321Z" fill="#534741"/>
<path d="M184.025 28.8718C183.723 28.8718 183.478 29.1168 183.478 29.4188V30.4035C183.478 34.237 185.285 35.7687 189.552 35.7687C193.481 35.7687 195.115 34.8891 195.515 32.3925C195.557 32.1299 195.786 31.9373 196.053 31.9373H202.648C203.026 31.9373 203.291 32.3137 203.164 32.6704C201.314 37.8496 195.937 41.8474 189.664 41.8474C181.619 41.8474 175.269 35.8803 175.269 27.1191C175.269 18.9617 181.288 11.8438 189.773 11.8438C197.435 11.8438 203.51 18.4147 203.51 26.2985V28.3247C203.51 28.6267 203.265 28.8718 202.963 28.8718H184.027H184.025ZM183.478 22.9594V23.1235C183.478 23.4255 183.723 23.6706 184.025 23.6706H194.752C195.053 23.6706 195.298 23.4255 195.298 23.1235C195.298 19.1805 193.765 17.6489 189.662 17.6489C185.337 17.6489 183.478 19.2374 183.478 22.9594Z" fill="#534741"/>
<path d="M161.313 18.9067H156.824C156.523 18.9067 156.278 18.6617 156.278 18.3597V12.9397C156.278 12.6377 156.523 12.3927 156.824 12.3927H161.313C161.615 12.3927 161.86 12.1476 161.86 11.8456V10.5306C161.86 5.11058 165.856 1.7168 172.313 1.7168H175.706C176.008 1.7168 176.253 1.96187 176.253 2.26383V7.3556C176.253 7.65756 176.008 7.90263 175.706 7.90263H171.928C170.34 7.90263 169.575 8.72318 169.575 10.1477V11.8456C169.575 12.1476 169.82 12.3927 170.122 12.3927H176.251C176.552 12.3927 176.797 12.6377 176.797 12.9397V18.3597C176.797 18.6617 176.552 18.9067 176.251 18.9067H170.122C169.82 18.9067 169.575 19.1518 169.575 19.4538V40.7508C169.575 41.0528 169.33 41.2978 169.028 41.2978H162.404C162.103 41.2978 161.858 41.0528 161.858 40.7508V19.4538C161.858 19.1518 161.613 18.9067 161.311 18.9067H161.313Z" fill="#534741"/>
<path d="M147.902 12.3899H154.58C154.882 12.3899 155.127 12.635 155.127 12.9369V40.7502C155.127 41.0522 154.882 41.2972 154.58 41.2972H147.902C147.6 41.2972 147.355 41.0522 147.355 40.7502V12.9369C147.355 12.635 147.6 12.3899 147.902 12.3899ZM155.892 5.08591C155.892 7.67228 153.797 9.76851 151.211 9.76851C148.626 9.76851 146.53 7.67228 146.53 5.08591C146.53 2.49955 148.626 0.40332 151.211 0.40332C153.797 0.40332 155.892 2.49955 155.892 5.08591Z" fill="#534741"/>
<path d="M122.946 1.9873H129.897C130.199 1.9873 130.444 2.23237 130.444 2.53434V33.4132C130.444 33.7152 130.689 33.9602 130.991 33.9602H145.058C145.36 33.9602 145.605 34.2053 145.605 34.5073V40.75C145.605 41.0519 145.36 41.297 145.058 41.297H122.946C122.644 41.297 122.399 41.0519 122.399 40.75V2.53434C122.399 2.23237 122.644 1.9873 122.946 1.9873Z" fill="#534741"/>
<path d="M114.048 41.8442C116.633 41.8442 118.729 39.7477 118.729 37.1616C118.729 34.5755 116.633 32.479 114.048 32.479C111.463 32.479 109.367 34.5755 109.367 37.1616C109.367 39.7477 111.463 41.8442 114.048 41.8442Z" fill="#534741"/>
<path d="M86.3193 28.8718C86.0175 28.8718 85.7725 29.1168 85.7725 29.4188V30.4035C85.7725 34.237 87.5793 35.7687 91.8468 35.7687C95.7754 35.7687 97.4093 34.8891 97.8096 32.3925C97.8512 32.1299 98.0809 31.9373 98.3477 31.9373H104.943C105.321 31.9373 105.586 32.3137 105.459 32.6704C103.608 37.8496 98.2318 41.8474 91.9584 41.8474C83.9132 41.8474 77.5632 35.8803 77.5632 27.1191C77.5632 18.9617 83.5829 11.8438 92.0678 11.8438C99.7302 11.8438 105.805 18.4147 105.805 26.2985V28.3247C105.805 28.6267 105.56 28.8718 105.258 28.8718H86.3215H86.3193ZM85.7725 22.9594V23.1235C85.7725 23.4255 86.0175 23.6706 86.3193 23.6706H97.0462C97.3481 23.6706 97.5931 23.4255 97.5931 23.1235C97.5931 19.1805 96.0597 17.6489 91.9562 17.6489C87.6317 17.6489 85.7725 19.2374 85.7725 22.9594Z" fill="#534741"/>
<path d="M51.9619 12.3906H58.9746C59.2349 12.3906 59.4602 12.5744 59.5106 12.8304L63.8219 34.3441C63.8722 34.6001 64.0975 34.7839 64.3578 34.7839H65.6549C65.913 34.7839 66.1361 34.6023 66.1908 34.3485L70.7143 12.8261C70.7668 12.5722 70.9899 12.3906 71.2502 12.3906H78.2083C78.5626 12.3906 78.8251 12.7232 78.7398 13.0689L71.948 40.8822C71.8889 41.1273 71.668 41.3002 71.4165 41.3002H58.6487C58.395 41.3002 58.1762 41.1273 58.1172 40.88L51.4304 13.0668C51.3472 12.7232 51.6075 12.3906 51.9619 12.3906Z" fill="#534741"/>
<path d="M23.1122 26.7908C23.1122 18.2506 29.4053 11.8438 37.8355 11.8438C46.2656 11.8438 52.6134 18.2484 52.6134 26.7908C52.6134 35.3333 46.2656 41.8474 37.8355 41.8474C29.4053 41.8474 23.1122 35.388 23.1122 26.7908ZM44.2926 29.3094V24.3817C44.2926 20.2199 42.2671 18.36 37.8355 18.36C33.4038 18.36 31.433 20.2768 31.433 24.3817V29.3094C31.433 33.4712 33.5132 35.3858 37.8355 35.3858C42.1577 35.3858 44.2926 33.469 44.2926 29.3094Z" fill="#534741"/>
<path d="M1.05661 1.9873H8.00811C8.30997 1.9873 8.55496 2.23237 8.55496 2.53434V33.4132C8.55496 33.7152 8.79994 33.9602 9.1018 33.9602H23.1689C23.4707 33.9602 23.7157 34.2053 23.7157 34.5073V40.75C23.7157 41.0519 23.4707 41.297 23.1689 41.297H1.05661C0.754752 41.297 0.509766 41.0519 0.509766 40.75V2.53434C0.509766 2.23237 0.754752 1.9873 1.05661 1.9873Z" fill="#534741"/>
<path d="M44.1701 54.5097H46.4704V66.6081H52.2029V68.7028H44.1677V54.5073L44.1701 54.5097Z" fill="#534741"/>
<path d="M131.217 54.5097H133.517V66.6081H139.25V68.7028H131.215V54.5073L131.217 54.5097Z" fill="#534741"/>
<path d="M51.6672 61.6048C51.6672 57.4717 54.4828 54.2393 58.0858 54.2393C61.6887 54.2393 64.5235 57.4742 64.5235 61.6048C64.5235 65.7355 61.7079 68.9704 58.0858 68.9704C54.4636 68.9704 51.6672 65.7355 51.6672 61.6048ZM62.0223 62.6637V60.5679C62.0223 57.9123 60.5653 56.335 58.0858 56.335C55.6062 56.335 54.1492 57.8928 54.1492 60.5679V62.6637C54.1492 65.2998 55.6254 66.8746 58.0858 66.8746C60.5461 66.8746 62.0223 65.2974 62.0223 62.6637Z" fill="#534741"/>
<path d="M93.9861 54.5073H98.6921L102.597 66.6466H103.359V54.5073H105.503V68.7028H100.997L97.051 56.5635H96.1107V68.7028H93.9885V54.5073H93.9861Z" fill="#534741"/>
<path d="M65.3271 64.1809H67.8381C67.8983 66.2958 68.6285 66.9553 70.843 66.9553C72.7611 66.9553 73.6696 66.3371 73.6696 64.9986V64.3391C73.6696 63.3607 73.2358 63.0419 71.3177 62.7621L69.9152 62.543C67.4043 62.1439 65.8043 60.5669 65.8043 58.5299C65.8043 56.1935 68.0188 54.2393 70.6261 54.2393C73.4527 54.2393 75.5274 56.0767 75.8431 58.7708H73.3129C73.2744 56.8749 72.6021 56.2568 70.6044 56.2568C68.9248 56.2568 68.1345 56.836 68.1345 58.0723V58.6515C68.1345 59.6883 68.667 60.0899 70.4671 60.3673L71.8912 60.6058C74.6768 61.0658 76.0407 62.3216 76.0407 64.4583C76.0407 66.9529 73.6888 68.9704 70.8044 68.9704C67.92 68.9704 65.5681 67.0137 65.3296 64.1809H65.3271Z" fill="#534741"/>
<path d="M149.696 64.1809H152.206C152.267 66.2958 152.997 66.9553 155.211 66.9553C157.13 66.9553 158.038 66.3371 158.038 64.9986V64.3391C158.038 63.3607 157.604 63.0419 155.686 62.7621L154.284 62.543C151.773 62.1439 150.173 60.5669 150.173 58.5299C150.173 56.1935 152.387 54.2393 154.994 54.2393C157.821 54.2393 159.896 56.0767 160.212 58.7708H157.681C157.643 56.8749 156.97 56.2568 154.973 56.2568C153.293 56.2568 152.503 56.836 152.503 58.0723V58.6515C152.503 59.6883 153.035 60.0899 154.835 60.3673L156.26 60.6058C159.045 61.0658 160.409 62.3216 160.409 64.4583C160.409 66.9529 158.057 68.9704 155.173 68.9704C152.288 68.9704 149.937 67.0137 149.698 64.1809H149.696Z" fill="#534741"/>
<path d="M89.3567 64.8074H84.0516L82.9857 68.7028H80.5941L84.7745 54.5073H88.7735L92.9147 68.7028H90.4226L89.3567 64.8074ZM88.8152 62.8115L87.1073 56.5635H86.3035L84.5956 62.8115H88.8152Z" fill="#534741"/>
<path d="M119.163 61.2056V68.7708H117.262V66.3951C116.39 67.9919 114.745 68.9704 112.905 68.9704C109.516 68.9704 106.842 65.716 106.842 61.6048C106.842 57.4936 109.536 54.2393 113.142 54.2393C116.033 54.2393 118.649 56.4153 119.064 59.1707H116.489C116.429 57.3135 115.301 56.335 113.081 56.335C110.545 56.335 109.337 57.6932 109.337 60.5679V62.6637C109.337 65.458 110.666 66.916 113.161 66.916C115.48 66.916 116.786 65.6186 116.905 63.1821H113.161V61.2056H119.163Z" fill="#534741"/>
<path d="M121.037 54.5073H129.487V56.5635H123.339V60.36H128.892V62.3969H123.339V66.6466H129.608V68.7028H121.039V54.5073H121.037Z" fill="#534741"/>
<g clip-path="url(#clip0_956_892)">
<path d="M29.2476 60.0299C28.5897 58.0988 26.9158 55.5696 22.6715 54.4865C19.1696 53.5928 16.1834 55.3482 15.1061 56.1056C14.0296 55.3473 11.0444 53.5928 7.54155 54.4865C3.29724 55.5696 1.62246 58.0988 0.965391 60.0299C-0.0495726 63.0119 0.663472 66.6764 2.78242 69.3676C8.63635 76.798 14.5261 81.0809 14.5876 81.1248C14.6215 81.1486 14.6536 81.1669 14.6876 81.1806C14.7243 81.2016 14.7619 81.219 14.7968 81.2318C14.8849 81.2638 14.9748 81.283 15.0473 81.2858L15.107 81.2894C15.296 81.2894 15.4768 81.2309 15.631 81.1211C15.6897 81.079 21.5712 76.8054 27.4315 69.3676C29.5505 66.6764 30.2635 63.011 29.2486 60.0299H29.2476ZM11.8097 76.4742C9.81283 74.6456 7.01113 71.8474 4.18923 68.2662C2.46031 66.0708 1.84546 62.9918 2.65945 60.6034C3.39819 58.4327 5.23999 56.9142 7.98479 56.2136C8.48677 56.0855 9.00435 56.0215 9.52284 56.0215C11.3839 56.0215 12.9789 56.8584 13.7846 57.3744C12.5053 58.9752 11.8051 60.9684 11.8051 63.0257C11.8051 65.0829 12.5466 67.1923 13.8993 68.8169C12.5475 70.4424 11.8051 72.4878 11.8051 74.6081L11.8097 76.4751V76.4742ZM16.6184 63.0247C16.6184 64.642 16.0788 66.2126 15.107 67.4695C14.1287 66.2007 13.5937 64.6365 13.5937 63.0247C13.5937 61.413 14.1333 59.8369 15.1061 58.5809C16.0843 59.8497 16.6184 61.413 16.6184 63.0229V63.0247ZM22.7623 72.1054C19.366 75.822 16.3697 78.2882 15.218 79.191C14.1682 77.8948 13.5937 76.2785 13.5937 74.6072C13.5937 72.936 14.1535 71.3626 15.1758 70.0783C16.7937 71.3901 18.8199 72.1091 20.9159 72.1091L22.7633 72.1063L22.7623 72.1054ZM18.4061 63.0229C18.4061 60.9666 17.7059 58.9743 16.4275 57.3735C17.4966 56.6874 19.7275 55.5778 22.2273 56.2136C24.9721 56.9142 26.8139 58.4318 27.5536 60.6025C28.2685 62.7018 27.8775 65.3665 26.5652 67.485C24.962 66.2209 22.9688 65.5275 20.9123 65.5275C19.89 65.5275 18.8585 65.7031 17.8912 66.0397C18.229 65.0756 18.4061 64.0456 18.4061 63.0229ZM25.3722 68.8178C24.0994 69.792 22.5302 70.3253 20.9141 70.3253C19.2981 70.3253 17.7169 69.7874 16.456 68.8178C17.7288 67.8427 19.2981 67.3103 20.9141 67.3103C22.5302 67.3103 24.0994 67.8436 25.3722 68.8178Z" fill="#534741"/>
</g>
<defs>
<clipPath id="clip0_956_892">
<rect width="29.1944" height="27.0517" fill="white" transform="translate(0.509766 54.2393)"/>
</clipPath>
</defs>
</svg>
