<svg width="73" height="73" viewBox="0 0 73 73" fill="none" xmlns="http://www.w3.org/2000/svg">
<g filter="url(#filter0_d_938_24367)">
<g filter="url(#filter1_b_938_24367)">
<circle cx="36.2207" cy="32.5659" r="32" fill="#E3612D"/>
<circle cx="36.2207" cy="32.5659" r="31.5" stroke="white"/>
</g>
<path d="M50.8679 26.6116C50.1864 24.6204 48.4526 22.0124 44.0564 20.8956C40.4292 19.9741 37.3361 21.7841 36.2202 22.5651C35.1052 21.7832 32.0132 19.9741 28.385 20.8956C23.9888 22.0124 22.2541 24.6204 21.5735 26.6116C20.5222 29.6865 21.2608 33.4651 23.4555 36.2401C29.519 43.9019 35.6195 48.3181 35.6832 48.3634C35.7183 48.3879 35.7516 48.4068 35.7868 48.421C35.8248 48.4426 35.8638 48.4606 35.8999 48.4738C35.9911 48.5068 36.0843 48.5266 36.1594 48.5294L36.2212 48.5332C36.417 48.5332 36.6042 48.4728 36.7639 48.3596C36.8248 48.3163 42.9167 43.9095 48.9868 36.2401C51.1816 33.4651 51.9201 29.6856 50.8688 26.6116H50.8679ZM32.8059 43.568C30.7376 41.6825 27.8356 38.7972 24.9127 35.1044C23.1219 32.8407 22.4851 29.6658 23.3282 27.203C24.0933 24.9647 26.0011 23.3989 28.8441 22.6764C29.364 22.5444 29.9001 22.4783 30.4372 22.4783C32.3649 22.4783 34.0169 23.3414 34.8515 23.8734C33.5264 25.524 32.8012 27.5793 32.8012 29.7007C32.8012 31.822 33.5692 33.9971 34.9703 35.6722C33.5701 37.3484 32.8012 39.4574 32.8012 41.6438L32.8059 43.569V43.568ZM37.7867 29.6997C37.7867 31.3673 37.2278 32.9869 36.2212 34.2829C35.2079 32.9746 34.6537 31.3617 34.6537 29.6997C34.6537 28.0377 35.2127 26.4126 36.2202 25.1175C37.2335 26.4258 37.7867 28.0377 37.7867 29.6978V29.6997ZM44.1505 39.0632C40.6326 42.8955 37.5291 45.4385 36.3362 46.3694C35.2488 45.0329 34.6537 43.3662 34.6537 41.6429C34.6537 39.9196 35.2336 38.2973 36.2925 36.973C37.9682 38.3256 40.067 39.0669 42.238 39.0669L44.1514 39.0641L44.1505 39.0632ZM39.6383 29.6978C39.6383 27.5774 38.9131 25.5231 37.589 23.8724C38.6963 23.165 41.0071 22.0209 43.5963 22.6764C46.4394 23.3989 48.3471 24.9638 49.1132 27.202C49.8537 29.3668 49.4487 32.1144 48.0895 34.2989C46.4289 32.9954 44.3644 32.2804 42.2342 32.2804C41.1753 32.2804 40.1069 32.4615 39.1051 32.8086C39.4549 31.8144 39.6383 30.7524 39.6383 29.6978ZM46.8538 35.6732C45.5354 36.6777 43.91 37.2276 42.2361 37.2276C40.5622 37.2276 38.9245 36.673 37.6184 35.6732C38.9368 34.6677 40.5622 34.1187 42.2361 34.1187C43.91 34.1187 45.5354 34.6687 46.8538 35.6732Z" fill="white"/>
</g>
<defs>
<filter id="filter0_d_938_24367" x="0.220703" y="0.565918" width="72" height="72" filterUnits="userSpaceOnUse" color-interpolation-filters="sRGB">
<feFlood flood-opacity="0" result="BackgroundImageFix"/>
<feColorMatrix in="SourceAlpha" type="matrix" values="0 0 0 0 0 0 0 0 0 0 0 0 0 0 0 0 0 0 127 0" result="hardAlpha"/>
<feOffset dy="4"/>
<feGaussianBlur stdDeviation="2"/>
<feComposite in2="hardAlpha" operator="out"/>
<feColorMatrix type="matrix" values="0 0 0 0 0 0 0 0 0 0 0 0 0 0 0 0 0 0 0.25 0"/>
<feBlend mode="normal" in2="BackgroundImageFix" result="effect1_dropShadow_938_24367"/>
<feBlend mode="normal" in="SourceGraphic" in2="effect1_dropShadow_938_24367" result="shape"/>
</filter>
<filter id="filter1_b_938_24367" x="-45.7793" y="-49.4341" width="164" height="164" filterUnits="userSpaceOnUse" color-interpolation-filters="sRGB">
<feFlood flood-opacity="0" result="BackgroundImageFix"/>
<feGaussianBlur in="BackgroundImageFix" stdDeviation="25"/>
<feComposite in2="SourceAlpha" operator="in" result="effect1_backgroundBlur_938_24367"/>
<feBlend mode="normal" in="SourceGraphic" in2="effect1_backgroundBlur_938_24367" result="shape"/>
</filter>
</defs>
</svg>
