<svg width="20" height="22" viewBox="0 0 20 22" fill="none" xmlns="http://www.w3.org/2000/svg">
<path d="M16.7105 4.70502C16.5619 4.62827 16.4172 4.54414 16.2769 4.45294C15.8692 4.18367 15.4953 3.86638 15.1635 3.50791C14.3331 2.55875 14.0229 1.59584 13.9087 0.921662H13.9133C13.8178 0.362065 13.8573 0 13.8633 0H10.081V14.61C10.081 14.8062 10.081 15 10.0727 15.1916C10.0727 15.2154 10.0705 15.2374 10.0691 15.2631C10.0691 15.2737 10.0691 15.2847 10.0668 15.2957C10.0668 15.2984 10.0668 15.3012 10.0668 15.3039C10.0269 15.8281 9.8587 16.3345 9.57694 16.7785C9.29518 17.2225 8.9085 17.5906 8.45093 17.8503C7.97404 18.1213 7.43467 18.2635 6.886 18.2628C5.1238 18.2628 3.69559 16.8273 3.69559 15.0546C3.69559 13.2818 5.1238 11.8464 6.886 11.8464C7.21958 11.8461 7.5511 11.8985 7.86827 12.0018L7.87286 8.15472C6.91003 8.03048 5.93187 8.10692 5.00009 8.37922C4.06832 8.65152 3.20315 9.11377 2.45916 9.73681C1.80725 10.3026 1.25919 10.9778 0.839634 11.7318C0.679975 12.0068 0.0775865 13.1118 0.0046392 14.9052C-0.0412396 15.9231 0.264772 16.9777 0.410667 17.4135V17.4227C0.502424 17.6793 0.857985 18.5552 1.43743 19.2935C1.90468 19.8858 2.45672 20.406 3.07577 20.8375V20.8284L3.08494 20.8375C4.91597 22.0805 6.9461 21.9989 6.9461 21.9989C7.29754 21.9847 8.47479 21.9989 9.8117 21.366C11.2945 20.6643 12.1387 19.6189 12.1387 19.6189C12.678 18.9943 13.1068 18.2824 13.4068 17.5139C13.749 16.6151 13.8633 15.5372 13.8633 15.1064V7.35543C13.9091 7.38292 14.5202 7.78669 14.5202 7.78669C14.5202 7.78669 15.4007 8.35042 16.7743 8.71752C17.7597 8.97876 19.0875 9.03376 19.0875 9.03376V5.28294C18.6223 5.33336 17.6776 5.1867 16.7105 4.70502Z" fill="#534541"/>
</svg>
